<svg width="451" height="104" viewBox="0 0 451 104" fill="none" xmlns="http://www.w3.org/2000/svg">
<path d="M529.54 -107.096C536.362 -81.1321 540.578 -54.2531 541.343 -26.7968C542.231 5.08484 534.64 34.9549 521.211 63.5252C505.821 96.2692 485.453 125.735 461.74 152.913C454.198 161.557 445.537 169.025 434.897 173.629C432.091 174.843 426.594 175.873 425.872 174.734C423.669 171.262 426.543 168.039 429.093 165.174C438.612 154.483 448.474 144.053 457.369 132.856C503.354 74.9649 518.534 9.38182 505.351 -63.2242C498.414 -101.426 485.59 -137.352 465.358 -170.571C441.815 -209.225 409.538 -236.625 365.756 -249.897C343.904 -256.522 322.085 -263.024 299.245 -264.975C283.506 -266.319 267.868 -265.1 252.483 -261.473C249.572 -260.787 245.236 -260.604 245.745 -256.09C246.229 -251.811 250.084 -250.598 253.75 -250.61C258.022 -250.623 262.41 -250.872 266.542 -251.872C280.136 -255.16 293.744 -254.636 307.359 -252.49C332.751 -248.49 357.318 -241.642 380.328 -229.913C417.688 -210.868 443.909 -181.5 460.505 -143.085C470.633 -119.641 478.584 -95.5064 484.924 -70.8074C495.044 -31.3755 491.315 7.30613 480.081 45.9899C458.415 120.6 409.645 171.239 341.968 205.661C300.982 226.507 257.792 237.25 211.543 235.055C164.102 232.803 123.327 215.089 89.1967 182.316C82.5726 175.955 78.1707 167.255 72.8655 159.549C72.0265 158.331 71.3087 156.608 71.4575 155.219C71.7324 152.646 71.9591 149.291 73.5946 147.892C74.8987 146.777 78.724 147.321 80.6299 148.467C85.3585 151.308 89.7464 154.77 94.0656 158.239C115.349 175.335 137.993 190.341 163.741 199.604C198.494 212.106 234.378 214.084 270.727 208.479C273.734 208.015 276.782 207.089 279.496 205.742C280.96 205.015 281.755 202.939 282.852 201.472C281.217 200.654 279.539 199.062 277.954 199.149C269.816 199.594 261.697 200.418 253.58 201.206C234.271 203.079 215.543 199.999 197.051 194.679C173.106 187.791 150.093 178.647 128.81 165.571C96.4865 145.712 73.5065 118.026 62.0735 81.6654C54.2137 56.669 46.5142 31.4926 41.0409 5.90465C33.5605 -29.0658 38.602 -63.4203 51.2117 -96.7107C65.5641 -134.602 89.8075 -164.781 122.213 -188.671C129.643 -194.149 136.911 -199.853 144.127 -205.613C145.242 -206.504 145.665 -208.265 146.409 -209.624C144.747 -209.886 142.66 -210.928 141.492 -210.288C132.473 -205.347 123.034 -200.888 114.831 -194.788C49.6808 -146.339 20.7088 -81.1694 27.4256 -0.290818C28.7721 15.9245 32.7616 31.9235 35.5691 48.0158C36.1442 51.3152 37.8657 55.1233 34.2927 57.3405C30.605 59.6297 26.4463 57.6443 24.4032 54.7632C20.6372 49.4531 17.2521 43.6411 14.9239 37.5718C-10.1728 -27.8671 -0.363615 -89.6562 35.016 -148.434C54.8987 -181.466 82.2853 -207.46 113.487 -229.542C151.726 -256.606 192.915 -278.428 238.283 -290.049C284.858 -301.98 332.195 -302.866 378.562 -287.245C417.352 -274.176 448.3 -249.599 473.966 -218.217C501.48 -184.578 518.752 -153.638 529.54 -107.096Z" fill="#C8102E"/>
<path d="M23.0341 101.706C22.6463 98.8129 22.0806 95.9309 21.9101 93.0245C21.6194 88.0737 23.0007 83.7487 27.821 81.4677C32.8051 79.1092 38.1473 78.997 42.0213 83.0394C45.659 86.8355 48.8522 91.421 50.9915 96.2178C54.8773 104.926 57.8752 114.034 61.1652 123.004C62.9054 127.749 60.5332 131.867 55.5048 132.479C46.1091 133.622 37.8469 131.406 32.8699 122.633C29.0874 115.966 25.9877 108.91 22.5845 102.027C22.7346 101.92 22.8838 101.813 23.0337 101.704L23.0341 101.706Z" fill="#C8102E"/>
</svg>
